<svg xmlns="http://www.w3.org/2000/svg" viewBox="0 0 512 512" width="256" height="256"><path fill="#ed5564" d="M328.883 69.346c-24.373 0-46.404 10.016-62.224 26.155-15.812-16.14-37.843-26.155-62.217-26.155-48.108 0-87.106 38.999-87.106 87.106 0 99.544 149.323 186.643 149.323 186.643s149.347-87.099 149.347-186.643c0-48.107-39.015-87.106-87.123-87.106z" class="colorED5564 svgShape"></path><path fill="#ffffff" d="M328.883 69.346c-3.608 0-7.155.219-10.655.656 43.062 5.25 76.435 41.952 76.435 86.45 0 83.278-104.496 157.862-138.659 179.986 6.656 4.344 10.656 6.656 10.656 6.656s149.347-87.099 149.347-186.643c-.001-48.106-39.016-87.105-87.124-87.105z" opacity=".2" class="colorFFF svgShape"></path><path fill="#eac6bb" d="M450.879 298.314c-3.344-.25-7.016-.375-11.03-.375-26.249 0-67.139 5.594-123.152 15.469-6.968-19.875-51.256-28.593-51.256-28.593s-95.56-5.219-156.557-8.531a200.637 200.637 0 0 0-11.281-.312c-80.81-.031-97.59 50.405-97.59 50.405v52.248c.031 29.967 92.341 44.654 92.653 44.686 73.326 14.5 163.463 19.344 163.463 19.344s246.999-97.028 253.468-102.716c6.483-5.657 3.655-36.625-58.718-41.625z" class="colorEAC6BB svgShape"></path><path fill="#dbada2" d="M385.912 302.408c-19.404 2.594-42.029 6.219-67.872 10.75a1003.199 1003.199 0 0 1-10.187 4.469c-67.788 28.905-115.723 34.967-143.988 34.967-5.891 0-10.672 4.781-10.672 10.688 0 5.875 4.781 10.656 10.672 10.656 44.108 0 95.481-12.406 152.69-36.843 34.609-14.781 60.421-29.406 69.357-34.687z" class="colorDBADA2 svgShape"></path></svg>