<svg id="SvgjsSvg1001" width="256" height="256" xmlns="http://www.w3.org/2000/svg" version="1.1" xmlns:xlink="http://www.w3.org/1999/xlink" xmlns:svgjs="http://svgjs.com/svgjs"><defs id="SvgjsDefs1002"></defs><g id="SvgjsG1008"><svg xmlns="http://www.w3.org/2000/svg" viewBox="0 0 24 24" width="256" height="256"><g data-name="Layer 2"><circle cx="12" cy="9" r="3.75" fill="#000000" class="color000 svgShape"></circle><path d="M12 12.25A4.756 4.756 0 0 0 7.25 17v1a.75.75 0 0 0 .75.75h8a.75.75 0 0 0 .75-.75v-1A4.756 4.756 0 0 0 12 12.25zm-3.96-.62a3.218 3.218 0 0 1-1.75 1.85 3.248 3.248 0 1 1 1.03-5.26 4.114 4.114 0 0 0-.07.78 4.761 4.761 0 0 0 .79 2.63zm14.21-1.13a3.246 3.246 0 0 1-6.29 1.13A4.761 4.761 0 0 0 16.75 9a4.114 4.114 0 0 0-.07-.78 3.253 3.253 0 0 1 5.57 2.28z" fill="#000000" class="color000 svgShape"></path><path d="M7.15 13.93a5.666 5.666 0 0 0-.9 3.07v1.75H2a.755.755 0 0 1-.75-.75v-1A3.751 3.751 0 0 1 5 13.25a3.714 3.714 0 0 1 2.15.68zM22.75 17v1a.755.755 0 0 1-.75.75h-4.25V17a5.666 5.666 0 0 0-.9-3.07 3.714 3.714 0 0 1 2.15-.68A3.751 3.751 0 0 1 22.75 17z" fill="#000000" class="color000 svgShape"></path></g></svg></g></svg>