<svg xmlns="http://www.w3.org/2000/svg" fill="currentColor" viewBox="0 0 24 24"><path fill-rule="evenodd" d="M3 4.997a1 1 0 0 0-1 1v11a1 1 0 0 0 1 1h3v3a1 1 0 0 0 1.651.76l4.38-3.76H21a1 1 0 0 0 1-1v-11a1 1 0 0 0-1-1H3zm8.422 7.54h1.164c.168 0 .264-.097.276-.277.06-.564.324-.84.912-1.296l.108-.084c.756-.588 1.164-1.296 1.164-2.172 0-1.344-1.032-2.412-2.916-2.412-1.788 0-2.868.96-3.012 2.52-.012.192.096.288.276.288h1.32c.168 0 .264-.096.288-.276.06-.648.42-1.02 1.08-1.02.636 0 1.02.408 1.02.936 0 .516-.276.876-.552 1.128l-.456.42c-.672.612-.912 1.032-.948 1.956 0 .192.096.288.276.288zm.578 3.46a1 1 0 1 0 0-2 1 1 0 0 0 0 2z" clip-rule="evenodd"/></svg>