<svg xmlns="http://www.w3.org/2000/svg" fill-rule="evenodd" stroke-linejoin="round" stroke-miterlimit="2" clip-rule="evenodd" viewBox="0 0 96 96" width="256" height="256"><g transform="translate(-2952 -32)"><path fill="url(#a)" d="M2975.04,121.622C2974.91,122.288 2975.13,122.974 2975.62,123.444C2976.11,123.913 2976.8,124.102 2977.46,123.946C2983.84,122.437 2991.47,118.838 2996.98,112C2996.98,112 3000,112 3000,112C3026.61,112 3048,94.824 3048,74C3048,53.176 3026.61,36 3000,36C2973.39,36 2952,53.176 2952,74C2952,84.606 2957.7,94.627 2967.29,101.747C2967.29,101.747 2967.29,101.747 2967.29,101.747C2973.47,106.335 2976.49,114.063 2975.04,121.622Z"></path><circle cx="82.5" cy="79.5" r="4.5" fill="#4ce25d" transform="translate(2908.33 -14.333) scale(1.11111)" class="color4ce25d svgShape"></circle><circle cx="82.5" cy="79.5" r="4.5" fill="#4ce25d" transform="translate(2886.33 -14.333) scale(1.11111)" class="color4ce25d svgShape"></circle><circle cx="82.5" cy="79.5" r="4.5" fill="#4ce25d" transform="translate(2930.33 -14.333) scale(1.11111)" class="color4ce25d svgShape"></circle></g><defs><linearGradient id="a" x1="0" x2="1" y1="0" y2="0" gradientTransform="matrix(-96 0 0 -88 3048 80)" gradientUnits="userSpaceOnUse"><stop offset="0" stop-color="#b4fbc1" class="stopColorb4fbc1 svgShape"></stop><stop offset="1" stop-color="#5af169" class="stopColor5af169 svgShape"></stop></linearGradient></defs></svg>
