<svg xmlns="http://www.w3.org/2000/svg" fill="currentColor" viewBox="0 0 24 24"><path fill-rule="evenodd" d="M18.75 15.955a2.12 2.12 0 0 0 .618-1.621 2.816 2.816 0 0 0 2.633-2.81V9.268a2 2 0 0 0-.583-1.411L18.17 4.594a2 2 0 0 0-.933-.53L13.22 3.06a2 2 0 0 0-1.9.526l-1.232 1.232-2.846-.407a1.75 1.75 0 0 0-1.485.495L2.514 8.15A1.75 1.75 0 0 0 2 9.386v.182c0 2.76 1.096 5.408 3.048 7.36l2.74 2.74a2.125 2.125 0 0 0 3.48-.725 2.125 2.125 0 0 0 2.652-1.238 2.125 2.125 0 0 0 2.652-1.237c.74.247 1.587.076 2.176-.513zM8.584 6.32l-.018.018a2.977 2.977 0 0 0 .001 4.208l.006.006.01.01a3 3 0 0 0 4.243 0l.707-.707 4.154 4.154a.625.625 0 1 1-.883.884l-.686-.685-.021-.022-1.503-1.502a.75.75 0 0 0-1.06 1.06l1.513 1.514a.625.625 0 0 1-.895.873l-2.21-2.21a.75.75 0 0 0-1.06 1.06l1.502 1.503a.625.625 0 1 1-.884.884l-.698-.698-.009-.009-1.502-1.503A.75.75 0 0 0 8.23 16.22l1.507 1.507a.625.625 0 0 1-.888.88l-2.74-2.74A8.907 8.907 0 0 1 3.5 9.568v-.182a.25.25 0 0 1 .073-.176l3.243-3.243a.25.25 0 0 1 .212-.07l1.732.247-.176.177z" clip-rule="evenodd"/></svg>