<svg xmlns="http://www.w3.org/2000/svg" enable-background="new 0 0 32 32" viewBox="0 0 32 32" width="256" height="256"><rect width="8" height="12" x="20.5" y="14.5" fill="#eceff1" class="colorECEFF1 svgShape"></rect><rect width="1.5" height="12" x="27" y="14.5" fill="#ffffff" class="colorFFF svgShape"></rect><rect width="2.5" height="12" x="20.5" y="14.5" fill="#cfd8dc" class="colorCFD8DC svgShape"></rect><rect width="12" height="8" x="14.5" y="3.5" fill="#eceff1" class="colorECEFF1 svgShape"></rect><rect width="12" height="1.5" x="14.5" y="3.5" fill="#ffffff" class="colorFFF svgShape"></rect><rect width="12" height="2.5" x="14.5" y="9" fill="#cfd8dc" class="colorCFD8DC svgShape"></rect><rect width="12" height="8" x="5.5" y="20.5" fill="#eceff1" class="colorECEFF1 svgShape"></rect><rect width="12" height="1.5" x="5.5" y="27" fill="#ffffff" class="colorFFF svgShape"></rect><rect width="12" height="2.5" x="5.5" y="20.5" fill="#cfd8dc" class="colorCFD8DC svgShape"></rect><path fill="#fff176" d="M18.645,4.33c0.603-0.188,1.25,0.104,1.51,0.678c0,0,0.301,0.67,0.673,1.496
					S21.5,7.104,21.5,6V3.5c0-0.552,0.447-1,1-1s1-0.052,1,0.5v1.5V3c0-0.552,0.447-1,1-1s1,0.448,1,1v0.5c0-0.552,0.447-1,1-1
					s1,0.448,1,1v1c0-0.553,0.447-1,1-1s1,0.447,1,1c0,0,0,5.582,0,6.5c0,1.502-1,2.043-1,3v1h-7v-2c-1.5,0-2.4-3.9-2.4-3.9l-1-4.6
					L18.645,4.33z" class="colorFFF176 svgShape"></path><path fill="#455a64" d="M21.5,13c-1.794,0-2.717-3.143-2.884-3.772l-1.005-4.621c-0.055-0.253,0.093-0.507,0.34-0.584
					l0.545-0.17c0.84-0.262,1.75,0.145,2.114,0.949c0.114,0.251,0.002,0.548-0.25,0.662c-0.252,0.113-0.548,0.002-0.662-0.25
					c-0.156-0.345-0.544-0.521-0.905-0.407l-0.108,0.034l0.903,4.152C19.908,10.193,20.742,12,21.5,12c0.276,0,0.5,0.224,0.5,0.5
					S21.776,13,21.5,13z" class="color455A64 svgShape"></path><path fill="#455a64" d="M28.5,15.5c-0.276,0-0.5-0.224-0.5-0.5v-1c0-0.558,0.246-0.985,0.483-1.398
					C28.749,12.139,29,11.702,29,11V4.5C29,4.224,28.776,4,28.5,4S28,4.224,28,4.5v1C28,5.776,27.776,6,27.5,6S27,5.776,27,5.5v-2
					C27,3.224,26.776,3,26.5,3S26,3.224,26,3.5V5c0,0.276-0.224,0.5-0.5,0.5S25,5.276,25,5V3c0-0.276-0.224-0.5-0.5-0.5
					S24,2.724,24,3v2c0,0.276-0.224,0.5-0.5,0.5S23,5.276,23,5V3.5C23,3.224,22.776,3,22.5,3S22,3.224,22,3.5V7
					c0,0.276-0.224,0.5-0.5,0.5S21,7.276,21,7V3.5C21,2.673,21.673,2,22.5,2c0.267,0,0.519,0.07,0.736,0.193
					C23.503,1.777,23.97,1.5,24.5,1.5s0.997,0.277,1.264,0.693C25.981,2.07,26.233,2,26.5,2c0.69,0,1.274,0.469,1.447,1.105
					C28.119,3.038,28.305,3,28.5,3C29.327,3,30,3.673,30,4.5V11c0,0.969-0.36,1.596-0.65,2.1C29.154,13.44,29,13.708,29,14v1
					C29,15.276,28.776,15.5,28.5,15.5z" class="color455A64 svgShape"></path><path fill="#455a64" d="M20.5,29.5c-0.276,0-0.5-0.224-0.5-0.5V14.5c0-0.276,0.224-0.5,0.5-0.5h8c0.276,0,0.5,0.224,0.5,0.5V16
				c0,0.276-0.224,0.5-0.5,0.5S28,16.276,28,16v-1h-7v14C21,29.276,20.776,29.5,20.5,29.5z" class="color455A64 svgShape"></path><path fill="#ff8a80" d="M27.67,18.645c0.188,0.603-0.104,1.25-0.678,1.51c0,0-0.67,0.301-1.496,0.673
					S24.896,21.5,26,21.5h2.5c0.552,0,1,0.447,1,1s0.052,1-0.5,1h-1.5H29c0.552,0,1,0.447,1,1s-0.448,1-1,1h-0.5
					c0.552,0,1,0.447,1,1s-0.448,1-1,1h-1c0.553,0,1,0.447,1,1s-0.447,1-1,1c0,0-5.582,0-6.5,0c-1.502,0-2.043-1-3-1h-1v-7h2
					c0-1.5,3.9-2.4,3.9-2.4l4.6-1L27.67,18.645z" class="colorFF8A80 svgShape"></path><path fill="#455a64" d="M19.5,22c-0.276,0-0.5-0.224-0.5-0.5c0-1.794,3.143-2.717,3.772-2.884l4.621-1.005
					c0.257-0.055,0.506,0.092,0.584,0.34l0.17,0.545c0.263,0.841-0.145,1.75-0.949,2.114c-0.251,0.114-0.547,0.001-0.662-0.25
					c-0.114-0.251-0.002-0.548,0.25-0.662c0.344-0.156,0.519-0.545,0.407-0.905l-0.034-0.108l-4.152,0.903
					C21.807,19.908,20,20.742,20,21.5C20,21.776,19.776,22,19.5,22z" class="color455A64 svgShape"></path><path fill="#455a64" d="M27.5,30H21c-0.969,0-1.596-0.36-2.1-0.65C18.56,29.154,18.292,29,18,29h-1c-0.276,0-0.5-0.224-0.5-0.5
					S16.724,28,17,28h1c0.558,0,0.985,0.246,1.398,0.483C19.861,28.749,20.298,29,21,29h6.5c0.276,0,0.5-0.224,0.5-0.5
					S27.776,28,27.5,28h-1c-0.276,0-0.5-0.224-0.5-0.5s0.224-0.5,0.5-0.5h2c0.276,0,0.5-0.224,0.5-0.5S28.776,26,28.5,26H27
					c-0.276,0-0.5-0.224-0.5-0.5S26.724,25,27,25h2c0.276,0,0.5-0.224,0.5-0.5S29.276,24,29,24h-2c-0.276,0-0.5-0.224-0.5-0.5
					S26.724,23,27,23h1.5c0.276,0,0.5-0.224,0.5-0.5S28.776,22,28.5,22H25c-0.276,0-0.5-0.224-0.5-0.5S24.724,21,25,21h3.5
					c0.827,0,1.5,0.673,1.5,1.5c0,0.267-0.07,0.519-0.193,0.736C30.223,23.503,30.5,23.97,30.5,24.5s-0.277,0.997-0.693,1.264
					C29.93,25.981,30,26.233,30,26.5c0,0.69-0.469,1.274-1.105,1.447C28.962,28.119,29,28.305,29,28.5C29,29.327,28.327,30,27.5,30z
					" class="color455A64 svgShape"></path><path fill="#455a64" d="M17.5,29h-2c-0.276,0-0.5-0.224-0.5-0.5s0.224-0.5,0.5-0.5H17v-7H3.5C3.224,21,3,20.776,3,20.5
				S3.224,20,3.5,20h14c0.276,0,0.5,0.224,0.5,0.5v8C18,28.776,17.776,29,17.5,29z" class="color455A64 svgShape"></path><g><path fill="#80d8ff" d="M13.355,27.67c-0.603,0.188-1.25-0.104-1.51-0.678c0,0-0.301-0.67-0.673-1.496
					S10.5,24.896,10.5,26v2.5c0,0.552-0.447,1-1,1s-1,0.052-1-0.5v-1.5V29c0,0.552-0.447,1-1,1s-1-0.448-1-1v-0.5
					c0,0.552-0.447,1-1,1s-1-0.448-1-1v-1c0,0.553-0.447,1-1,1s-1-0.447-1-1c0,0,0-5.582,0-6.5c0-1.502,1-2.043,1-3v-1h7v2
					c1.5,0,2.4,3.9,2.4,3.9l1,4.6L13.355,27.67z" class="color80D8FF svgShape"></path><path fill="#455a64" d="M12.984,28.227c-0.67,0-1.305-0.389-1.594-1.029c-0.114-0.251-0.002-0.548,0.25-0.662
					c0.251-0.115,0.548-0.002,0.662,0.25c0.156,0.344,0.542,0.518,0.905,0.407l0.108-0.034l-0.903-4.152
					C12.092,21.807,11.258,20,10.5,20c-0.276,0-0.5-0.224-0.5-0.5s0.224-0.5,0.5-0.5c1.794,0,2.717,3.143,2.884,3.772l1.005,4.621
					c0.055,0.253-0.093,0.507-0.34,0.584l-0.545,0.17C13.332,28.201,13.157,28.227,12.984,28.227z" class="color455A64 svgShape"></path><path fill="#455a64" d="M7.5,30.5c-0.53,0-0.997-0.277-1.264-0.693C6.019,29.93,5.767,30,5.5,30
					c-0.69,0-1.274-0.469-1.447-1.105C3.881,28.962,3.695,29,3.5,29C2.673,29,2,28.327,2,27.5V21c0-0.969,0.36-1.596,0.65-2.1
					C2.846,18.56,3,18.292,3,18v-1c0-0.276,0.224-0.5,0.5-0.5S4,16.724,4,17v1c0,0.558-0.246,0.985-0.483,1.398
					C3.251,19.861,3,20.298,3,21v6.5C3,27.776,3.224,28,3.5,28S4,27.776,4,27.5v-1C4,26.224,4.224,26,4.5,26S5,26.224,5,26.5v2
					C5,28.776,5.224,29,5.5,29S6,28.776,6,28.5V27c0-0.276,0.224-0.5,0.5-0.5S7,26.724,7,27v2c0,0.276,0.224,0.5,0.5,0.5
					S8,29.276,8,29v-2c0-0.276,0.224-0.5,0.5-0.5S9,26.724,9,27v1.5C9,28.776,9.224,29,9.5,29s0.5-0.224,0.5-0.5V25
					c0-0.276,0.224-0.5,0.5-0.5S11,24.724,11,25v3.5c0,0.827-0.673,1.5-1.5,1.5c-0.267,0-0.519-0.07-0.736-0.193
					C8.497,30.223,8.03,30.5,7.5,30.5z" class="color455A64 svgShape"></path><rect width="8" height="12" x="3.5" y="5.5" fill="#eceff1" class="colorECEFF1 svgShape"></rect><rect width="2.5" height="12" x="9" y="5.5" fill="#cfd8dc" class="colorCFD8DC svgShape"></rect><rect width="1.5" height="12" x="3.5" y="5.5" fill="#ffffff" class="colorFFF svgShape"></rect><path fill="#455a64" d="M11.5,18h-8C3.224,18,3,17.776,3,17.5v-2C3,15.224,3.224,15,3.5,15S4,15.224,4,15.5V17h7V3.5
				C11,3.224,11.224,3,11.5,3S12,3.224,12,3.5v14C12,17.776,11.776,18,11.5,18z" class="color455A64 svgShape"></path></g><g><path fill="#1de9b6" d="M4.33,13.355c-0.188-0.603,0.104-1.25,0.678-1.51c0,0,0.67-0.301,1.496-0.673
				S7.104,10.5,6,10.5H3.5c-0.552,0-1-0.447-1-1s-0.052-1,0.5-1h1.5H3c-0.552,0-1-0.447-1-1s0.448-1,1-1h0.5c-0.552,0-1-0.447-1-1
				s0.448-1,1-1h1c-0.553,0-1-0.447-1-1s0.447-1,1-1c0,0,5.582,0,6.5,0c1.502,0,2.043,1,3,1h1v7h-2c0,1.5-3.9,2.4-3.9,2.4l-4.6,1
				L4.33,13.355z" class="color1DE9B6 svgShape"></path><path fill="#455a64" d="M4.5,14.4c-0.214,0-0.411-0.139-0.477-0.351l-0.17-0.545c-0.263-0.841,0.145-1.75,0.949-2.114
				c0.252-0.115,0.548-0.002,0.662,0.25c0.114,0.251,0.002,0.548-0.25,0.662c-0.344,0.156-0.519,0.545-0.407,0.905l0.034,0.108
				l4.152-0.903C10.193,12.092,12,11.258,12,10.5c0-0.276,0.224-0.5,0.5-0.5s0.5,0.224,0.5,0.5c0,1.794-3.143,2.717-3.772,2.884
				l-4.621,1.005C4.57,14.397,4.535,14.4,4.5,14.4z" class="color455A64 svgShape"></path><path fill="#455a64" d="M7,11H3.5C2.673,11,2,10.327,2,9.5c0-0.267,0.07-0.519,0.193-0.736C1.777,8.497,1.5,8.03,1.5,7.5
				s0.277-0.997,0.693-1.264C2.07,6.019,2,5.767,2,5.5c0-0.69,0.469-1.274,1.105-1.447C3.038,3.881,3,3.695,3,3.5
				C3,2.673,3.673,2,4.5,2H11c0.969,0,1.596,0.36,2.1,0.65C13.44,2.846,13.708,3,14,3h1c0.276,0,0.5,0.224,0.5,0.5S15.276,4,15,4h-1
				c-0.558,0-0.985-0.246-1.398-0.483C12.139,3.251,11.702,3,11,3H4.5C4.224,3,4,3.224,4,3.5S4.224,4,4.5,4h1C5.776,4,6,4.224,6,4.5
				S5.776,5,5.5,5h-2C3.224,5,3,5.224,3,5.5S3.224,6,3.5,6H5c0.276,0,0.5,0.224,0.5,0.5S5.276,7,5,7H3C2.724,7,2.5,7.224,2.5,7.5
				S2.724,8,3,8h2c0.276,0,0.5,0.224,0.5,0.5S5.276,9,5,9H3.5C3.224,9,3,9.224,3,9.5S3.224,10,3.5,10H7c0.276,0,0.5,0.224,0.5,0.5
				S7.276,11,7,11z" class="color455A64 svgShape"></path><path fill="#455a64" d="M19.5,12h-5c-0.276,0-0.5-0.224-0.5-0.5v-8C14,3.224,14.224,3,14.5,3h2C16.776,3,17,3.224,17,3.5
				S16.776,4,16.5,4H15v7h4.5c0.276,0,0.5,0.224,0.5,0.5S19.776,12,19.5,12z" class="color455A64 svgShape"></path></g></svg>